<svg width="22" height="11" viewBox="0 0 22 11" fill="none" xmlns="http://www.w3.org/2000/svg">
<path d="M16.706 10.84C15.7353 10.84 14.9033 10.6927 14.21 10.398C13.5167 10.086 12.9273 9.67867 12.442 9.176C11.974 8.67333 11.5493 8.12733 11.168 7.538C10.7867 6.93133 10.4227 6.33333 10.076 5.744C9.72933 5.13733 9.33933 4.58267 8.906 4.08C8.49 3.57733 7.996 3.17867 7.424 2.884C6.852 2.572 6.15 2.416 5.318 2.416C4.642 2.416 4.02667 2.572 3.472 2.884C2.93467 3.196 2.51 3.612 2.198 4.132C1.886 4.652 1.73 5.24133 1.73 5.9C1.73 6.55867 1.886 7.148 2.198 7.668C2.51 8.188 2.93467 8.604 3.472 8.916C4.02667 9.228 4.642 9.384 5.318 9.384C6.15 9.384 6.852 9.23667 7.424 8.942C7.996 8.63 8.49 8.22267 8.906 7.72C9.33933 7.21733 9.72933 6.67133 10.076 6.082C10.4227 5.47533 10.7867 4.87733 11.168 4.288C11.5493 3.68133 11.974 3.12667 12.442 2.624C12.9273 2.12133 13.5167 1.72267 14.21 1.428C14.9033 1.116 15.7353 0.959999 16.706 0.959999C17.6767 0.959999 18.5347 1.17667 19.28 1.61C20.0253 2.026 20.6147 2.60667 21.048 3.352C21.4987 4.08 21.724 4.92067 21.724 5.874C21.724 6.82733 21.4987 7.67667 21.048 8.422C20.6147 9.16733 20.0253 9.75667 19.28 10.19C18.5347 10.6233 17.6767 10.84 16.706 10.84ZM5.24 10.84C4.28667 10.84 3.42867 10.6233 2.666 10.19C1.90333 9.75667 1.29667 9.16733 0.846 8.422C0.412667 7.67667 0.196 6.836 0.196 5.9C0.196 4.94667 0.412667 4.09733 0.846 3.352C1.29667 2.60667 1.90333 2.026 2.666 1.61C3.42867 1.17667 4.28667 0.959999 5.24 0.959999C6.21067 0.959999 7.034 1.116 7.71 1.428C8.40333 1.72267 8.99267 2.12133 9.478 2.624C9.96333 3.12667 10.388 3.67267 10.752 4.262C11.1333 4.85133 11.4973 5.44933 11.844 6.056C12.208 6.66267 12.598 7.21733 13.014 7.72C13.43 8.22267 13.924 8.63 14.496 8.942C15.068 9.23667 15.77 9.384 16.602 9.384C17.2953 9.384 17.9107 9.228 18.448 8.916C18.9853 8.604 19.41 8.188 19.722 7.668C20.034 7.13067 20.19 6.53267 20.19 5.874C20.19 5.21533 20.034 4.626 19.722 4.106C19.41 3.586 18.9853 3.17867 18.448 2.884C17.9107 2.572 17.2953 2.416 16.602 2.416C15.77 2.416 15.068 2.572 14.496 2.884C13.924 3.17867 13.43 3.57733 13.014 4.08C12.598 4.58267 12.208 5.13733 11.844 5.744C11.4973 6.33333 11.1333 6.93133 10.752 7.538C10.388 8.12733 9.96333 8.67333 9.478 9.176C8.99267 9.67867 8.40333 10.086 7.71 10.398C7.034 10.6927 6.21067 10.84 5.24 10.84Z" fill="#4B2E28"/>
</svg>
