<svg width="36" height="36" viewBox="0 0 36 36" fill="none" xmlns="http://www.w3.org/2000/svg">
<path d="M14.1 29.9C10.2333 29.9 6.91667 28.5667 4.15 25.9C1.38333 23.2333 0 19.9833 0 16.15V3C0 2.16667 0.291667 1.45833 0.875 0.875C1.45833 0.291667 2.16667 0 3 0H29.45C31.25 0 32.7917 0.616667 34.075 1.85C35.3583 3.08333 36 4.6 36 6.4C36 8.4 35.3833 10.1667 34.15 11.7C32.9167 13.2333 31.35 14 29.45 14H28.2V16.15C28.2 19.9833 26.8167 23.2333 24.05 25.9C21.2833 28.5667 17.9667 29.9 14.1 29.9ZM3 11H25.2V3H3V11ZM14.1 26.9C17.1333 26.9 19.7417 25.8667 21.925 23.8C24.1083 21.7333 25.2 19.1833 25.2 16.15V14H3V16.15C3 19.1833 4.09167 21.7333 6.275 23.8C8.45833 25.8667 11.0667 26.9 14.1 26.9ZM28.2 11H29.45C30.55 11 31.4167 10.525 32.05 9.575C32.6833 8.625 33 7.56667 33 6.4C33 5.43333 32.65 4.625 31.95 3.975C31.25 3.325 30.4167 3 29.45 3H28.2V11ZM0 36V33H32V36H0Z" fill="#4B2E28"/>
</svg>
